<svg width="128" height="128" viewBox="0 0 128 128" fill="none" xmlns="http://www.w3.org/2000/svg">
<g clip-path="url(#clip0_2012_132)">
<rect width="128" height="128" rx="32" fill="#2EA863"/>
<path d="M22.2217 44.0315C20.455 44.0315 19 42.5774 19 40.8116V31.5157C19 24.6087 24.612 19 31.5231 19H40.8245C42.5912 19 44.0462 20.4541 44.0462 22.2198C44.0462 23.9855 42.5912 25.4396 40.8245 25.4396H31.5231C28.1975 25.4396 25.4954 28.1401 25.4954 31.4638V40.7597C25.4954 42.5254 24.0404 43.9795 22.2737 43.9795L22.2217 44.0315Z" fill="white"/>
<path d="M105.726 44.0316C103.96 44.0316 102.505 42.5775 102.505 40.8118V31.5159C102.505 28.1922 99.8026 25.4917 96.4769 25.4917H87.1756C85.4088 25.4917 83.9539 24.0376 83.9539 22.2719C83.9539 20.5062 85.4088 19.0521 87.1756 19.0521H96.4769C103.388 19.0521 109 24.6608 109 31.5678V40.8637C109 42.6294 107.545 44.0835 105.778 44.0835L105.726 44.0316Z" fill="white"/>
<path d="M96.4769 108.947H87.1756C85.4088 108.947 83.9539 107.493 83.9539 105.727C83.9539 103.962 85.4088 102.507 87.1756 102.507H96.4769C99.8026 102.507 102.505 99.8069 102.505 96.4833V87.1873C102.505 85.4216 103.96 83.9675 105.726 83.9675C107.493 83.9675 108.948 85.4216 108.948 87.1873V96.4833C108.948 103.39 103.336 108.999 96.425 108.999L96.4769 108.947Z" fill="white"/>
<path d="M40.8245 108.947H31.5231C24.612 108.947 19 103.338 19 96.4313V87.1353C19 85.3696 20.455 83.9155 22.2217 83.9155C23.9884 83.9155 25.4434 85.3696 25.4434 87.1353V96.4313C25.4434 99.7549 28.1455 102.455 31.4711 102.455H40.7725C42.5392 102.455 43.9942 103.91 43.9942 105.675C43.9942 107.441 42.5392 108.895 40.7725 108.895L40.8245 108.947Z" fill="white"/>
<path d="M78.9131 39.825C73.9246 39.825 69.9235 41.6426 66.8057 43.4083C65.5066 35.4107 61.5574 32.3986 59.6348 31.4638C58.0239 30.6849 56.1013 31.308 55.2699 32.918C54.4385 34.5279 55.114 36.4494 56.7249 37.2803C58.0239 37.9035 59.323 39.7211 60.1024 42.889C57.0366 41.2791 53.3473 39.825 49.1383 39.825C39.681 39.825 31.8346 47.4071 31.6267 57.0146C31.6267 69.9978 40.5644 95.8602 52.36 95.8602C54.7503 95.8602 56.8288 95.0292 58.8553 94.1983C60.674 93.4713 62.3369 92.7961 63.9997 92.7961C65.6625 92.7961 67.3253 93.4713 69.144 94.1983C71.1706 95.0292 73.3011 95.8602 75.6394 95.8602C87.435 95.8602 96.3726 69.9458 96.3726 56.9108C96.1128 47.4071 88.2664 39.825 78.8611 39.825H78.9131ZM75.6394 89.3167C74.5482 89.3167 73.0932 88.7454 71.5343 88.1222C69.3519 87.2394 66.8576 86.2526 63.9477 86.2526C61.0378 86.2526 58.5436 87.2394 56.3611 88.1222C54.8542 88.7454 53.3992 89.3167 52.308 89.3167C46.8519 89.3167 38.0701 69.3746 38.0701 57.0146C38.226 51.0424 43.1105 46.2646 49.1383 46.2646C53.5031 46.2646 57.5043 48.6535 60.3623 50.4711C61.0897 50.9385 61.7653 51.354 62.3369 51.6656C62.3369 51.6656 62.4408 51.6656 62.4927 51.6656C62.9085 51.8733 63.3761 52.0291 63.8958 52.0291C63.8958 52.0291 63.9477 52.0291 63.9997 52.0291C64.5193 52.0291 64.987 51.8733 65.4027 51.6656C65.4027 51.6656 65.5066 51.6656 65.5586 51.6656C66.1302 51.354 66.8057 50.9385 67.5332 50.4711C70.3392 48.7054 74.1844 46.2646 78.6013 46.2646C84.577 46.3685 89.7214 50.9905 89.8773 56.9627C89.8773 69.3746 81.0955 89.3167 75.6394 89.3167Z" fill="white"/>
</g>
<defs>
<clipPath id="clip0_2012_132">
<rect width="128" height="128" fill="white"/>
</clipPath>
</defs>
</svg>
