<?xml version="1.0" encoding="UTF-8"?>
<svg id="Layer_2" data-name="Layer 2" xmlns="http://www.w3.org/2000/svg" width="95.85" height="17.32" viewBox="0 0 95.85 17.32">
  <defs>
    <style>
      .cls-1 {
        fill: #232322;
      }

      .cls-2 {
        fill: #2ea863;
      }
    </style>
  </defs>
  <g id="Layer_1-2" data-name="Layer 1">
    <g>
      <g>
        <path class="cls-1" d="M22.83,4.35h2.09l2.44,6.68,2.44-6.68h2.08v8.64h-1.42v-6.55l-2.46,6.55h-1.28l-2.45-6.55v6.55h-1.43V4.35Z"/>
        <path class="cls-1" d="M33.09,12.64c-.41-.33-.61-.79-.61-1.38,0-.37.09-.68.26-.93s.43-.46.77-.62.78-.29,1.32-.38l1.85-.34v-.4c0-.3-.1-.53-.29-.68-.19-.15-.49-.22-.9-.22s-.72.08-.97.25-.39.42-.41.77h-1.37c.02-.7.28-1.23.79-1.58.51-.35,1.16-.53,1.95-.53.85,0,1.49.16,1.91.49.43.32.64.78.64,1.36v4.54h-1.31v-.73c-.26.31-.55.54-.88.67-.33.14-.7.2-1.1.2-.7,0-1.25-.16-1.66-.49ZM35.82,11.91c.25-.11.46-.28.62-.5.16-.23.24-.51.24-.86v-.59l-1.6.32c-.42.09-.72.19-.91.32-.19.12-.28.33-.28.61s.09.48.28.64c.19.15.47.23.83.23.29,0,.56-.05.81-.16Z"/>
        <path class="cls-1" d="M39.9,12.71c-.46-.28-.81-.67-1.05-1.16-.24-.5-.37-1.06-.37-1.68s.12-1.18.37-1.68.59-.88,1.05-1.16.99-.42,1.61-.42c.82,0,1.47.21,1.96.64.49.42.78,1,.88,1.72h-1.39c-.08-.37-.24-.66-.49-.86-.25-.21-.56-.31-.95-.31-.35,0-.65.09-.88.26-.24.17-.42.41-.54.73-.12.31-.19.68-.19,1.1s.06.79.19,1.1c.12.31.3.55.54.73.24.17.53.26.88.26.38,0,.7-.11.95-.32.25-.22.41-.52.49-.91h1.39c-.09.73-.38,1.31-.89,1.75-.5.44-1.15.66-1.94.66-.62,0-1.15-.14-1.61-.42Z"/>
        <path class="cls-1" d="M44.85,6.75h1.33v1.07c.22-.41.48-.7.8-.88.32-.18.69-.26,1.12-.26h.48v1.28h-.54c-.37,0-.69.06-.95.19-.27.12-.48.33-.63.61-.15.28-.23.66-.23,1.14v3.1h-1.38v-6.24Z"/>
        <path class="cls-1" d="M50.08,12.71c-.48-.28-.84-.67-1.09-1.16-.25-.5-.37-1.06-.37-1.68s.12-1.18.37-1.68.61-.88,1.09-1.16c.48-.28,1.03-.42,1.67-.42s1.2.14,1.67.42c.47.28.83.67,1.08,1.16.25.5.37,1.06.37,1.68s-.12,1.18-.37,1.68c-.25.5-.61.88-1.08,1.16-.47.28-1.03.42-1.67.42s-1.2-.14-1.67-.42ZM52.71,11.7c.26-.17.45-.41.57-.73.12-.31.19-.68.19-1.1s-.06-.79-.19-1.1c-.12-.31-.31-.55-.57-.73-.26-.17-.57-.26-.95-.26s-.7.09-.95.26-.44.41-.57.73c-.13.31-.19.68-.19,1.1s.06.79.19,1.1c.13.31.32.55.57.73s.57.26.95.26.69-.09.95-.26Z"/>
        <path class="cls-1" d="M55.84,12.6c-.49-.36-.76-.91-.81-1.66h1.36c.05.42.19.71.44.89.24.18.59.27,1.05.27.39,0,.7-.07.94-.21.23-.14.35-.33.35-.58,0-.17-.04-.3-.11-.4-.07-.1-.21-.19-.43-.27s-.53-.16-.97-.23c-.63-.11-1.13-.25-1.49-.43s-.61-.38-.76-.62c-.15-.24-.22-.55-.22-.91,0-.57.23-1.02.69-1.35s1.07-.5,1.82-.5c.86,0,1.52.19,1.98.56s.7.89.72,1.55h-1.31c-.02-.4-.15-.68-.4-.84-.25-.16-.58-.24-1-.24-.33,0-.6.07-.82.2-.22.14-.32.32-.32.56,0,.17.04.3.13.4.08.1.24.19.46.26.22.07.54.14.97.22.62.1,1.11.24,1.46.41.35.17.6.37.75.62.15.24.22.55.22.92,0,.6-.25,1.07-.74,1.4s-1.15.5-1.96.5-1.51-.18-2-.53Z"/>
        <path class="cls-1" d="M62.22,12.71c-.46-.28-.81-.67-1.05-1.16-.24-.5-.37-1.06-.37-1.68s.12-1.18.37-1.68.59-.88,1.05-1.16.99-.42,1.61-.42c.82,0,1.47.21,1.96.64.49.42.78,1,.88,1.72h-1.39c-.08-.37-.24-.66-.49-.86-.25-.21-.56-.31-.95-.31-.35,0-.65.09-.88.26-.24.17-.42.41-.54.73-.12.31-.19.68-.19,1.1s.06.79.19,1.1c.12.31.3.55.54.73.24.17.53.26.88.26.38,0,.7-.11.95-.32.25-.22.41-.52.49-.91h1.39c-.09.73-.38,1.31-.89,1.75-.5.44-1.15.66-1.94.66-.62,0-1.15-.14-1.61-.42Z"/>
        <path class="cls-1" d="M67.53,12.64c-.41-.33-.61-.79-.61-1.38,0-.37.09-.68.26-.93s.43-.46.77-.62.78-.29,1.32-.38l1.85-.34v-.4c0-.3-.1-.53-.29-.68-.19-.15-.49-.22-.9-.22s-.72.08-.97.25-.39.42-.41.77h-1.37c.02-.7.28-1.23.79-1.58.51-.35,1.16-.53,1.95-.53.85,0,1.49.16,1.91.49.43.32.64.78.64,1.36v4.54h-1.31v-.73c-.26.31-.55.54-.88.67-.33.14-.7.2-1.1.2-.7,0-1.25-.16-1.66-.49ZM70.26,11.91c.25-.11.46-.28.62-.5.16-.23.24-.51.24-.86v-.59l-1.6.32c-.42.09-.72.19-.91.32-.19.12-.28.33-.28.61s.09.48.28.64c.19.15.47.23.83.23.29,0,.56-.05.81-.16Z"/>
        <path class="cls-1" d="M73.08,6.75h1.33v.88c.23-.31.51-.56.85-.74.33-.18.71-.28,1.13-.28.49,0,.9.1,1.23.31s.58.49.74.85c.16.36.25.78.25,1.25v3.97h-1.37v-3.82c0-.42-.1-.75-.31-.99-.21-.24-.52-.37-.95-.37-.22,0-.44.05-.67.15-.23.1-.43.28-.6.53-.17.26-.25.6-.25,1.04v3.44h-1.38v-6.24Z"/>
        <path class="cls-1" d="M79.32,6.75h1.33v.88c.23-.31.51-.56.85-.74.33-.18.71-.28,1.13-.28.49,0,.9.1,1.23.31s.58.49.74.85c.16.36.25.78.25,1.25v3.97h-1.37v-3.82c0-.42-.1-.75-.31-.99-.21-.24-.52-.37-.95-.37-.22,0-.44.05-.67.15-.23.1-.43.28-.6.53-.17.26-.25.6-.25,1.04v3.44h-1.38v-6.24Z"/>
        <path class="cls-1" d="M86.87,12.71c-.46-.28-.82-.67-1.06-1.16-.24-.5-.37-1.06-.37-1.68s.12-1.18.37-1.68.6-.88,1.06-1.16,1-.42,1.62-.42,1.15.14,1.61.42.81.67,1.06,1.18.37,1.09.37,1.76v.36h-4.68c.04.34.13.64.27.89.14.25.33.44.56.59.23.14.5.22.82.22.38,0,.69-.08.95-.25.26-.16.46-.39.59-.69h1.37c-.2.63-.56,1.13-1.07,1.5-.51.37-1.13.55-1.85.55-.62,0-1.16-.14-1.62-.42ZM89.58,8.14c-.28-.28-.64-.42-1.09-.42s-.81.14-1.09.42-.46.66-.54,1.14h3.25c-.08-.48-.26-.86-.53-1.14Z"/>
        <path class="cls-1" d="M92.11,6.75h1.33v1.07c.22-.41.48-.7.8-.88.32-.18.69-.26,1.12-.26h.48v1.28h-.54c-.37,0-.69.06-.95.19-.27.12-.48.33-.63.61-.15.28-.23.66-.23,1.14v3.1h-1.38v-6.24Z"/>
      </g>
      <g>
        <g>
          <path class="cls-2" d="M.62,4.82c-.34,0-.62-.28-.62-.62v-1.79C0,1.08,1.08,0,2.41,0h1.79c.34,0,.62.28.62.62s-.28.62-.62.62h-1.79c-.64,0-1.16.52-1.16,1.16v1.79c0,.34-.28.62-.62.62Z"/>
          <path class="cls-2" d="M16.69,4.82c-.34,0-.62-.28-.62-.62v-1.79c0-.64-.52-1.16-1.16-1.16h-1.79c-.34,0-.62-.28-.62-.62s.28-.62.62-.62h1.79c1.33,0,2.41,1.08,2.41,2.41v1.79c0,.34-.28.62-.62.62Z"/>
          <path class="cls-2" d="M14.91,17.32h-1.79c-.34,0-.62-.28-.62-.62s.28-.62.62-.62h1.79c.64,0,1.16-.52,1.16-1.16v-1.79c0-.34.28-.62.62-.62s.62.28.62.62v1.79c0,1.33-1.08,2.41-2.41,2.41Z"/>
          <path class="cls-2" d="M4.2,17.32h-1.79c-1.33,0-2.41-1.08-2.41-2.41v-1.79c0-.34.28-.62.62-.62s.62.28.62.62v1.79c0,.64.52,1.16,1.16,1.16h1.79c.34,0,.62.28.62.62s-.28.62-.62.62Z"/>
        </g>
        <path class="cls-2" d="M11.53,4.01c-.96,0-1.73.35-2.33.69-.25-1.54-1.01-2.12-1.38-2.3-.31-.15-.68-.03-.84.28-.16.31-.03.68.28.84.25.12.5.47.65,1.08-.59-.31-1.3-.59-2.11-.59-1.82,0-3.33,1.46-3.37,3.31,0,2.5,1.72,7.48,3.99,7.48.46,0,.86-.16,1.25-.32.35-.14.67-.27.99-.27s.64.13.99.27c.39.16.8.32,1.25.32,2.27,0,3.99-4.99,3.99-7.5-.05-1.83-1.56-3.29-3.37-3.29ZM10.9,13.54c-.21,0-.49-.11-.79-.23-.42-.17-.9-.36-1.46-.36s-1.04.19-1.46.36c-.29.12-.57.23-.78.23-1.05,0-2.74-3.84-2.74-6.22.03-1.15.97-2.07,2.13-2.07.84,0,1.61.46,2.16.81.14.09.27.17.38.23,0,0,.02,0,.03,0,.08.04.17.07.27.07,0,0,.01,0,.02,0,.1,0,.19-.03.27-.07,0,0,.02,0,.03,0,.11-.06.24-.14.38-.23.54-.34,1.28-.81,2.13-.81,1.15.02,2.14.91,2.17,2.06,0,2.39-1.69,6.23-2.74,6.23Z"/>
      </g>
    </g>
  </g>
</svg>