<?xml version="1.0" encoding="UTF-8"?>
<svg id="Layer_2" data-name="Layer 2" xmlns="http://www.w3.org/2000/svg" width="433.82" height="52.86" xmlns:xlink="http://www.w3.org/1999/xlink" viewBox="0 0 433.82 52.86">
  <defs>
    <style>
      .cls-1 {
        fill: url(#linear-gradient);
      }

      .cls-2 {
        fill: #fff;
      }

      .cls-3 {
        fill: #63c86f;
      }
    </style>
    <linearGradient id="linear-gradient" x1="26.49" y1="4.42" x2="26.49" y2="26.97" gradientUnits="userSpaceOnUse">
      <stop offset="0" stop-color="#63c86f"/>
      <stop offset="1" stop-color="#4ca65b"/>
    </linearGradient>
  </defs>
  <g id="Layer_1-2" data-name="Layer 1">
    <g>
      <g>
        <g>
          <path class="cls-3" d="M1.94,14.68c-1.04,0-1.88-.84-1.88-1.88v-5.46C.06,3.29,3.35,0,7.4,0h5.46c1.04,0,1.88.84,1.88,1.88s-.84,1.88-1.88,1.88h-5.46c-1.97,0-3.57,1.6-3.57,3.57v5.46c0,1.04-.84,1.88-1.88,1.88Z"/>
          <path class="cls-3" d="M51.04,14.68c-1.04,0-1.88-.84-1.88-1.88v-5.46c0-1.97-1.6-3.57-3.57-3.57h-5.46c-1.04,0-1.88-.84-1.88-1.88s.84-1.88,1.88-1.88h5.46c4.05,0,7.34,3.29,7.34,7.34v5.46c0,1.04-.84,1.88-1.88,1.88Z"/>
          <path class="cls-3" d="M45.58,52.86h-5.46c-1.04,0-1.88-.84-1.88-1.88s.84-1.88,1.88-1.88h5.46c1.97,0,3.57-1.6,3.57-3.57v-5.46c0-1.04.84-1.88,1.88-1.88s1.88.84,1.88,1.88v5.46c0,4.05-3.29,7.34-7.34,7.34Z"/>
          <path class="cls-3" d="M12.85,52.86h-5.46C3.35,52.86.06,49.57.06,45.53v-5.46c0-1.04.84-1.88,1.88-1.88s1.88.84,1.88,1.88v5.46c0,1.97,1.6,3.57,3.57,3.57h5.46c1.04,0,1.88.84,1.88,1.88s-.84,1.88-1.88,1.88Z"/>
        </g>
        <path class="cls-1" d="M35.65,9.8c-2.77-.02-5.17.98-7.06,2.02.47-2.29,1.4-3.56,2.29-4,.89-.44,1.25-1.52.8-2.41-.44-.89-1.52-1.25-2.41-.8-1.17.58-3.63,2.41-4.36,7.5-1.91-1.12-4.41-2.31-7.35-2.31-5.77-.05-10.65,4.51-10.8,10.36,0,1.55.2,3.36.61,5.37.19.97,1.13,1.6,2.11,1.41.97-.19,1.6-1.14,1.41-2.11-.35-1.75-.54-3.37-.54-4.62.09-3.79,3.21-6.82,7.03-6.82,2.76-.02,5.24,1.5,7.03,2.62.45.28.86.54,1.21.74.02.01.05.02.07.03.09.05.18.08.28.11.04.01.07.03.11.04.13.03.27.05.41.05,0,0,0,0,0,0,0,0,0,0,0,0,.14,0,.28-.02.41-.05.04,0,.07-.02.1-.03.1-.03.2-.07.29-.12.02-.01.04-.01.06-.03.35-.2.76-.45,1.21-.74,1.75-1.11,4.15-2.62,6.91-2.62,3.81-.03,7.04,2.99,7.14,6.78,0,1.3-.19,2.91-.54,4.66-.19.97.44,1.92,1.41,2.11.12.02.24.04.35.04.84,0,1.59-.59,1.76-1.44.4-2.01.61-3.81.61-5.41-.15-5.73-4.88-10.32-10.56-10.32Z"/>
        <path class="cls-3" d="M21,31.12l-.05,10.92c0,1.02-.83,1.85-1.85,1.85s-1.85-.83-1.85-1.85l.05-10.92h3.69Z"/>
        <path class="cls-3" d="M11.74,31.12l-.05,10.92c0,1.02-.83,1.85-1.85,1.85s-1.85-.83-1.85-1.85l.05-10.92h3.69Z"/>
        <path class="cls-3" d="M28.3,31.12l-.05,10.92c0,1.02-.83,1.85-1.85,1.85s-1.85-.83-1.85-1.85l.05-10.92h3.69Z"/>
        <path class="cls-3" d="M37.6,31.12l-.05,10.92c0,1.02-.83,1.85-1.85,1.85s-1.85-.83-1.85-1.85l.05-10.92h3.69Z"/>
        <path class="cls-3" d="M44.98,31.12l-.05,10.92c0,1.02-.83,1.85-1.85,1.85s-1.85-.83-1.85-1.85l.05-10.92h3.69Z"/>
        <path class="cls-3" d="M50.98,28.74H1.88c-1.04,0-1.88-.84-1.88-1.88s.84-1.88,1.88-1.88h49.1c1.04,0,1.88.84,1.88,1.88s-.84,1.88-1.88,1.88Z"/>
      </g>
      <g>
        <path class="cls-2" d="M70.9,10.98h6.17v4.52c.98-1.63,2.25-2.91,3.82-3.85,1.57-.94,3.45-1.4,5.65-1.4s4.21.54,5.8,1.62c1.59,1.08,2.81,2.58,3.66,4.49,1.06-1.87,2.46-3.36,4.21-4.46,1.75-1.1,3.81-1.65,6.17-1.65,2.24,0,4.16.54,5.77,1.62,1.61,1.08,2.82,2.53,3.63,4.37.81,1.83,1.22,3.85,1.22,6.04v20.46h-6.41v-19.78c0-2.12-.51-3.82-1.53-5.1-1.02-1.28-2.48-1.92-4.4-1.92s-3.54.66-5.13,1.98c-1.59,1.32-2.38,3.74-2.38,7.24v17.59h-6.41v-19.78c0-2.12-.51-3.82-1.53-5.1-1.02-1.28-2.48-1.92-4.4-1.92s-3.54.66-5.13,1.98c-1.59,1.32-2.38,3.74-2.38,7.24v17.59h-6.41V10.98Z"/>
        <path class="cls-2" d="M122.74,40.99c-2.08-1.65-3.11-3.98-3.11-6.99,0-1.83.45-3.4,1.34-4.7.9-1.3,2.21-2.37,3.94-3.21,1.73-.83,3.9-1.5,6.5-1.98l9.59-1.77v-2.08c0-1.67-.52-2.88-1.56-3.63-1.04-.75-2.64-1.13-4.79-1.13s-3.8.42-5.16,1.25c-1.36.83-2.11,2.23-2.23,4.18h-6.35c.08-3.58,1.4-6.26,3.97-8.03,2.56-1.77,5.82-2.66,9.77-2.66,4.19,0,7.35.81,9.46,2.44,2.12,1.63,3.18,3.93,3.18,6.9v23.14h-6.04v-3.79c-1.26,1.59-2.74,2.74-4.43,3.45-1.69.71-3.57,1.07-5.65,1.07-3.54,0-6.35-.82-8.43-2.47ZM136.44,37.48c1.36-.57,2.46-1.45,3.3-2.66.83-1.2,1.25-2.72,1.25-4.55v-3.18l-8.49,1.77c-2.2.45-3.8,1.01-4.79,1.68-1,.67-1.5,1.76-1.5,3.27,0,1.43.49,2.53,1.47,3.33.98.79,2.46,1.19,4.46,1.19,1.51,0,2.94-.28,4.3-.85Z"/>
        <path class="cls-2" d="M156.77,41.33c-2.3-1.42-4.07-3.4-5.31-5.92-1.24-2.52-1.86-5.37-1.86-8.55s.62-6.02,1.86-8.55c1.24-2.52,3.01-4.5,5.31-5.92,2.3-1.42,4.98-2.14,8.03-2.14,4.03,0,7.27,1.07,9.71,3.21,2.44,2.14,3.93,5,4.46,8.58h-6.53c-.41-1.95-1.28-3.49-2.63-4.61-1.34-1.12-3.01-1.68-5.01-1.68-1.87,0-3.45.47-4.73,1.4-1.28.94-2.25,2.24-2.9,3.91-.65,1.67-.98,3.6-.98,5.8s.33,4.13.98,5.8c.65,1.67,1.62,2.97,2.9,3.91,1.28.94,2.86,1.4,4.73,1.4,2.04,0,3.72-.58,5.07-1.74,1.34-1.16,2.2-2.76,2.56-4.79h6.53c-.49,3.62-2.01,6.53-4.55,8.73-2.54,2.2-5.75,3.3-9.62,3.3-3.05,0-5.73-.71-8.03-2.14Z"/>
        <path class="cls-2" d="M181.52,10.98h6.17v5.37c1.1-2.08,2.48-3.55,4.15-4.43,1.67-.87,3.56-1.31,5.68-1.31h2.44v6.05h-2.63c-1.91,0-3.56.31-4.95.92-1.38.61-2.47,1.65-3.27,3.11-.79,1.47-1.19,3.42-1.19,5.86v16.18h-6.41V10.98Z"/>
        <path class="cls-2" d="M207.65,41.33c-2.4-1.42-4.22-3.4-5.47-5.92-1.24-2.52-1.86-5.37-1.86-8.55s.62-6.02,1.86-8.55c1.24-2.52,3.06-4.5,5.47-5.92,2.4-1.42,5.19-2.14,8.37-2.14s6.01.71,8.4,2.14c2.38,1.43,4.2,3.4,5.47,5.92,1.26,2.52,1.89,5.37,1.89,8.55s-.63,6.03-1.89,8.55c-1.26,2.52-3.08,4.5-5.47,5.92-2.38,1.42-5.18,2.14-8.4,2.14s-5.96-.71-8.37-2.14ZM221.11,36.57c1.36-.94,2.38-2.24,3.05-3.91.67-1.67,1.01-3.6,1.01-5.8s-.34-4.13-1.01-5.8c-.67-1.67-1.69-2.97-3.05-3.91-1.36-.94-3.06-1.4-5.1-1.4s-3.67.47-5.04,1.4c-1.36.94-2.38,2.24-3.05,3.91-.67,1.67-1.01,3.6-1.01,5.8s.34,4.13,1.01,5.8c.67,1.67,1.69,2.97,3.05,3.91,1.36.94,3.04,1.4,5.04,1.4s3.73-.47,5.1-1.4Z"/>
        <path class="cls-2" d="M237.29,40.72c-2.46-1.83-3.8-4.62-4-8.37h6.29c.24,2.2,1.01,3.77,2.29,4.7,1.28.94,3.14,1.4,5.59,1.4,2.08,0,3.72-.38,4.95-1.13,1.22-.75,1.83-1.8,1.83-3.14,0-.89-.17-1.62-.52-2.17-.35-.55-1.07-1.03-2.17-1.44-1.1-.41-2.77-.79-5.01-1.16-3.18-.53-5.68-1.24-7.51-2.14-1.83-.89-3.1-1.96-3.82-3.21-.71-1.24-1.07-2.76-1.07-4.55,0-2.85,1.14-5.11,3.42-6.78,2.28-1.67,5.25-2.5,8.91-2.5,4.27,0,7.58.94,9.92,2.81,2.34,1.87,3.53,4.48,3.57,7.82h-6.17c-.04-2.08-.71-3.53-2.01-4.37-1.3-.83-3.07-1.25-5.31-1.25-1.75,0-3.2.36-4.34,1.07-1.14.71-1.71,1.72-1.71,3.02,0,.9.22,1.62.67,2.17.45.55,1.23,1.02,2.35,1.4,1.12.39,2.8.76,5.04,1.13,3.13.53,5.58,1.21,7.33,2.05,1.75.83,2.99,1.87,3.72,3.11.73,1.24,1.1,2.78,1.1,4.61,0,3.01-1.23,5.37-3.69,7.08-2.46,1.71-5.67,2.56-9.62,2.56-4.23,0-7.58-.92-10.04-2.75Z"/>
        <path class="cls-2" d="M269.53,41.33c-2.3-1.42-4.07-3.4-5.31-5.92-1.24-2.52-1.86-5.37-1.86-8.55s.62-6.02,1.86-8.55c1.24-2.52,3.01-4.5,5.31-5.92,2.3-1.42,4.98-2.14,8.03-2.14,4.03,0,7.27,1.07,9.71,3.21,2.44,2.14,3.93,5,4.46,8.58h-6.53c-.41-1.95-1.28-3.49-2.63-4.61-1.34-1.12-3.01-1.68-5.01-1.68-1.87,0-3.45.47-4.73,1.4-1.28.94-2.25,2.24-2.9,3.91-.65,1.67-.98,3.6-.98,5.8s.33,4.13.98,5.8c.65,1.67,1.62,2.97,2.9,3.91,1.28.94,2.86,1.4,4.73,1.4,2.03,0,3.72-.58,5.07-1.74,1.34-1.16,2.2-2.76,2.56-4.79h6.53c-.49,3.62-2.01,6.53-4.55,8.73-2.54,2.2-5.75,3.3-9.62,3.3-3.05,0-5.73-.71-8.03-2.14Z"/>
        <path class="cls-2" d="M297.09,40.99c-2.08-1.65-3.11-3.98-3.11-6.99,0-1.83.45-3.4,1.34-4.7.89-1.3,2.21-2.37,3.94-3.21,1.73-.83,3.9-1.5,6.5-1.98l9.59-1.77v-2.08c0-1.67-.52-2.88-1.56-3.63-1.04-.75-2.64-1.13-4.79-1.13s-3.8.42-5.16,1.25c-1.36.83-2.11,2.23-2.23,4.18h-6.35c.08-3.58,1.4-6.26,3.97-8.03,2.56-1.77,5.82-2.66,9.77-2.66,4.19,0,7.35.81,9.46,2.44,2.12,1.63,3.17,3.93,3.17,6.9v23.14h-6.04v-3.79c-1.26,1.59-2.74,2.74-4.43,3.45-1.69.71-3.57,1.07-5.65,1.07-3.54,0-6.35-.82-8.43-2.47ZM310.8,37.48c1.36-.57,2.46-1.45,3.3-2.66.83-1.2,1.25-2.72,1.25-4.55v-3.18l-8.49,1.77c-2.2.45-3.8,1.01-4.79,1.68-1,.67-1.5,1.76-1.5,3.27,0,1.43.49,2.53,1.47,3.33.98.79,2.46,1.19,4.46,1.19,1.51,0,2.94-.28,4.3-.85Z"/>
        <path class="cls-2" d="M323.7,10.98h6.17v4.46c1.14-1.59,2.55-2.85,4.24-3.79,1.69-.94,3.65-1.4,5.89-1.4,2.48,0,4.57.53,6.26,1.59,1.69,1.06,2.95,2.5,3.79,4.34.83,1.83,1.25,3.87,1.25,6.11v20.46h-6.35v-19.78c0-2.16-.56-3.87-1.68-5.13-1.12-1.26-2.78-1.89-4.98-1.89-1.14,0-2.33.24-3.57.73-1.24.49-2.32,1.43-3.24,2.81-.92,1.38-1.37,3.28-1.37,5.68v17.59h-6.41V10.98Z"/>
        <path class="cls-2" d="M353.37,10.98h6.17v4.46c1.14-1.59,2.55-2.85,4.24-3.79,1.69-.94,3.65-1.4,5.89-1.4,2.48,0,4.57.53,6.26,1.59,1.69,1.06,2.95,2.5,3.79,4.34.83,1.83,1.25,3.87,1.25,6.11v20.46h-6.35v-19.78c0-2.16-.56-3.87-1.68-5.13-1.12-1.26-2.78-1.89-4.98-1.89-1.14,0-2.33.24-3.57.73-1.24.49-2.32,1.43-3.24,2.81-.92,1.38-1.37,3.28-1.37,5.68v17.59h-6.41V10.98Z"/>
        <path class="cls-2" d="M389.81,41.33c-2.32-1.42-4.1-3.4-5.34-5.92-1.24-2.52-1.86-5.37-1.86-8.55s.62-6.02,1.86-8.55c1.24-2.52,3.02-4.5,5.34-5.92,2.32-1.42,5.01-2.14,8.06-2.14s5.74.71,8.06,2.14c2.32,1.43,4.1,3.42,5.34,5.98,1.24,2.56,1.86,5.5,1.86,8.79v1.83h-24c.2,1.83.67,3.43,1.4,4.79.73,1.36,1.72,2.42,2.96,3.18,1.24.75,2.7,1.13,4.37,1.13,1.95,0,3.63-.44,5.04-1.31,1.4-.88,2.45-2.13,3.14-3.76h6.41c-1.02,3.22-2.81,5.76-5.37,7.63-2.56,1.87-5.64,2.81-9.22,2.81-3.05,0-5.74-.71-8.06-2.14ZM403.64,17.85c-1.49-1.49-3.41-2.23-5.77-2.23s-4.34.74-5.8,2.23c-1.46,1.49-2.4,3.51-2.81,6.08h17.22c-.41-2.56-1.35-4.59-2.84-6.08Z"/>
        <path class="cls-2" d="M415.38,10.98h6.17v5.37c1.1-2.08,2.48-3.55,4.15-4.43,1.67-.87,3.56-1.31,5.68-1.31h2.44v6.05h-2.63c-1.91,0-3.56.31-4.95.92-1.38.61-2.47,1.65-3.27,3.11-.79,1.47-1.19,3.42-1.19,5.86v16.18h-6.41V10.98Z"/>
      </g>
    </g>
  </g>
</svg>