<?xml version="1.0" encoding="UTF-8"?>
<svg id="Layer_2" data-name="Layer 2" xmlns="http://www.w3.org/2000/svg" width="145.96" height="145.8" xmlns:xlink="http://www.w3.org/1999/xlink" viewBox="0 0 145.96 145.8">
  <defs>
    <style>
      .cls-1 {
        fill: url(#linear-gradient);
      }

      .cls-2 {
        fill: #63c86f;
      }
    </style>
    <linearGradient id="linear-gradient" x1="73.06" y1="12.2" x2="73.06" y2="74.4" gradientUnits="userSpaceOnUse">
      <stop offset="0" stop-color="#63c86f"/>
      <stop offset="1" stop-color="#4ca65b"/>
    </linearGradient>
  </defs>
  <g id="Layer_1-2" data-name="Layer 1">
    <g>
      <g>
        <path class="cls-2" d="M5.36,40.48c-2.87,0-5.19-2.33-5.19-5.19v-15.05C.16,9.08,9.24,0,20.4,0h15.05c2.87,0,5.19,2.33,5.19,5.19s-2.33,5.19-5.19,5.19h-15.05c-5.43,0-9.85,4.42-9.85,9.85v15.05c0,2.87-2.33,5.19-5.19,5.19Z"/>
        <path class="cls-2" d="M140.77,40.48c-2.87,0-5.19-2.33-5.19-5.19v-15.05c0-5.43-4.42-9.85-9.85-9.85h-15.05c-2.87,0-5.19-2.33-5.19-5.19s2.33-5.19,5.19-5.19h15.05c11.16,0,20.24,9.08,20.24,20.24v15.05c0,2.87-2.33,5.19-5.19,5.19Z"/>
        <path class="cls-2" d="M125.72,145.8h-15.05c-2.87,0-5.19-2.33-5.19-5.19s2.33-5.19,5.19-5.19h15.05c5.43,0,9.85-4.42,9.85-9.85v-15.05c0-2.87,2.33-5.19,5.19-5.19s5.19,2.33,5.19,5.19v15.05c0,11.16-9.08,20.24-20.24,20.24Z"/>
        <path class="cls-2" d="M35.45,145.8h-15.05c-11.16,0-20.24-9.08-20.24-20.24v-15.05c0-2.87,2.33-5.19,5.19-5.19s5.19,2.33,5.19,5.19v15.05c0,5.43,4.42,9.85,9.85,9.85h15.05c2.87,0,5.19,2.33,5.19,5.19s-2.33,5.19-5.19,5.19Z"/>
      </g>
      <path class="cls-1" d="M98.33,27.03c-7.64-.04-14.26,2.71-19.47,5.57,1.29-6.31,3.85-9.81,6.3-11.04,2.44-1.22,3.43-4.19,2.21-6.64-1.22-2.44-4.19-3.44-6.64-2.21-3.22,1.61-10.02,6.66-12.04,20.68-5.26-3.09-12.16-6.37-20.27-6.37-15.92-.13-29.38,12.44-29.77,28.59,0,4.28.56,9.26,1.67,14.8.54,2.68,3.13,4.41,5.82,3.88,2.68-.54,4.41-3.14,3.88-5.82-.97-4.84-1.48-9.28-1.48-12.74.26-10.46,8.86-18.82,19.38-18.82,7.6-.05,14.46,4.13,19.38,7.23,1.24.78,2.36,1.49,3.33,2.03.06.03.13.05.19.08.25.13.51.23.78.31.11.03.21.07.31.1.36.09.74.14,1.13.14,0,0,0,0,.01,0,0,0,0,0,0,0,.39,0,.77-.06,1.14-.15.1-.02.19-.06.29-.09.28-.09.55-.19.81-.33.06-.03.12-.04.17-.07.97-.55,2.09-1.25,3.33-2.03,4.83-3.05,11.45-7.23,19.07-7.23,10.51-.07,19.42,8.25,19.69,18.7,0,3.57-.51,8.02-1.48,12.86-.54,2.68,1.2,5.28,3.88,5.82.33.07.65.1.98.1,2.31,0,4.37-1.63,4.84-3.97,1.11-5.54,1.67-10.52,1.67-14.93-.42-15.8-13.47-28.46-29.13-28.46Z"/>
      <path class="cls-2" d="M57.91,85.83l-.13,30.12c0,2.81-2.28,5.09-5.09,5.09s-5.09-2.28-5.09-5.09l.13-30.12h10.19Z"/>
      <path class="cls-2" d="M32.37,85.83l-.13,30.12c0,2.81-2.28,5.09-5.09,5.09s-5.09-2.28-5.09-5.09l.13-30.12h10.19Z"/>
      <path class="cls-2" d="M78.06,85.83l-.13,30.12c0,2.81-2.28,5.09-5.09,5.09s-5.09-2.28-5.09-5.09l.13-30.12h10.19Z"/>
      <path class="cls-2" d="M103.69,85.83l-.13,30.12c0,2.81-2.28,5.09-5.09,5.09s-5.09-2.28-5.09-5.09l.13-30.12h10.19Z"/>
      <path class="cls-2" d="M124.07,85.83l-.13,30.12c0,2.81-2.28,5.09-5.09,5.09s-5.09-2.28-5.09-5.09l.13-30.12h10.19Z"/>
      <path class="cls-2" d="M140.61,79.27H5.19c-2.87,0-5.19-2.33-5.19-5.19s2.33-5.19,5.19-5.19h135.41c2.87,0,5.19,2.33,5.19,5.19s-2.33,5.19-5.19,5.19Z"/>
    </g>
  </g>
</svg>